<svg width="109" height="109" viewBox="0 0 109 109" fill="none" xmlns="http://www.w3.org/2000/svg">
<path d="M108.345 54.5296C108.345 24.7578 84.2097 0.623047 54.4379 0.623047C24.6661 0.623047 0.53125 24.7578 0.53125 54.5296C0.53125 84.3013 24.6661 108.436 54.4379 108.436C84.2097 108.436 108.345 84.3013 108.345 54.5296Z" fill="url(#paint0_linear_908_7167)" fill-opacity="0.44"/>
<path d="M100.646 54.5298C100.646 29.0112 79.9588 8.32422 54.4401 8.32422C28.9214 8.32422 8.23438 29.0112 8.23438 54.5298C8.23438 80.0485 28.9214 100.735 54.4401 100.735C79.9588 100.735 100.646 80.0485 100.646 54.5298Z" fill="url(#paint1_linear_908_7167)" fill-opacity="0.2"/>
<path d="M92.9392 54.53C92.9392 33.2645 75.7 16.0254 54.4344 16.0254C33.1689 16.0254 15.9297 33.2645 15.9297 54.53C15.9297 75.7956 33.1689 93.0347 54.4344 93.0347C75.7 93.0347 92.9392 75.7956 92.9392 54.53Z" fill="url(#paint2_linear_908_7167)" fill-opacity="0.4"/>
<path d="M85.2404 54.5304C85.2404 37.5179 71.4491 23.7266 54.4366 23.7266C37.4241 23.7266 23.6328 37.5179 23.6328 54.5304C23.6328 71.5428 37.4241 85.3342 54.4366 85.3342C71.4491 85.3342 85.2404 71.5428 85.2404 54.5304Z" fill="url(#paint3_linear_908_7167)" fill-opacity="0.6"/>
<path d="M77.5416 54.5286C77.5416 41.7693 67.1981 31.4258 54.4388 31.4258C41.6794 31.4258 31.3359 41.7693 31.3359 54.5286C31.3359 67.288 41.6794 77.6315 54.4388 77.6315C67.1981 77.6315 77.5416 67.288 77.5416 54.5286Z" fill="url(#paint4_linear_908_7167)" fill-opacity="0.7"/>
<path d="M69.8429 54.5289C69.8429 46.0226 62.9472 39.127 54.441 39.127C45.9347 39.127 39.0391 46.0226 39.0391 54.5289C39.0391 63.0351 45.9347 69.9308 54.441 69.9308C62.9472 69.9308 69.8429 63.0351 69.8429 54.5289Z" fill="#08020D"/>
<path d="M69.8429 54.5289C69.8429 46.0226 62.9472 39.127 54.441 39.127C45.9347 39.127 39.0391 46.0226 39.0391 54.5289C39.0391 63.0351 45.9347 69.9308 54.441 69.9308C62.9472 69.9308 69.8429 63.0351 69.8429 54.5289Z" fill="url(#paint5_linear_908_7167)"/>
<path d="M57.8257 53.3672H51.0465C50.5117 53.3672 50.0781 53.9651 50.0781 54.7026V59.3762C50.0781 60.1137 50.5117 60.7116 51.0465 60.7116H57.8257C58.3606 60.7116 58.7942 60.1137 58.7942 59.3762V54.7026C58.7942 53.9651 58.3606 53.3672 57.8257 53.3672Z" fill="white" stroke="white" stroke-width="2.51354" stroke-linecap="round" stroke-linejoin="round"/>
<path d="M54.4332 57.3098C55.0478 57.3098 55.5461 56.8115 55.5461 56.1969C55.5461 55.5822 55.0478 55.084 54.4332 55.084C53.8186 55.084 53.3203 55.5822 53.3203 56.1969C53.3203 56.8115 53.8186 57.3098 54.4332 57.3098Z" fill="url(#paint6_linear_908_7167)"/>
<path d="M53.9531 56.7676H54.9044V58.1429C54.9044 58.4056 54.6913 58.6186 54.4286 58.6186C54.166 58.6186 53.9531 58.4056 53.9531 58.1429V56.7676Z" fill="url(#paint7_linear_908_7167)"/>
<path d="M51.5391 53.3667V51.0527C51.5391 50.2855 51.8439 49.5498 52.3862 49.0076C52.9287 48.465 53.6644 48.1602 54.4316 48.1602C55.1988 48.1602 55.9344 48.465 56.4769 49.0076C57.0192 49.5498 57.3241 50.2855 57.3241 51.0527V53.3667" stroke="white" stroke-width="1.32467" stroke-linecap="round" stroke-linejoin="round"/>
<defs>
<linearGradient id="paint0_linear_908_7167" x1="-42.0325" y1="96.9558" x2="108.345" y2="96.9558" gradientUnits="userSpaceOnUse">
<stop stop-color="#8371FF"/>
<stop offset="0.394435" stop-color="#A077FE"/>
<stop offset="1" stop-color="#01C7E4"/>
</linearGradient>
<linearGradient id="paint1_linear_908_7167" x1="-28.2488" y1="90.8952" x2="100.646" y2="90.8952" gradientUnits="userSpaceOnUse">
<stop stop-color="#8371FF"/>
<stop offset="0.394435" stop-color="#A077FE"/>
<stop offset="1" stop-color="#01C7E4"/>
</linearGradient>
<linearGradient id="paint2_linear_908_7167" x1="-14.473" y1="84.8345" x2="92.9393" y2="84.8345" gradientUnits="userSpaceOnUse">
<stop stop-color="#8371FF"/>
<stop offset="0.394435" stop-color="#A077FE"/>
<stop offset="1" stop-color="#01C7E4"/>
</linearGradient>
<linearGradient id="paint3_linear_908_7167" x1="-0.689317" y1="78.774" x2="85.2405" y2="78.774" gradientUnits="userSpaceOnUse">
<stop stop-color="#8371FF"/>
<stop offset="0.394435" stop-color="#A077FE"/>
<stop offset="1" stop-color="#01C7E4"/>
</linearGradient>
<linearGradient id="paint4_linear_908_7167" x1="13.0943" y1="72.7114" x2="77.5417" y2="72.7114" gradientUnits="userSpaceOnUse">
<stop stop-color="#8371FF"/>
<stop offset="0.394435" stop-color="#A077FE"/>
<stop offset="1" stop-color="#01C7E4"/>
</linearGradient>
<linearGradient id="paint5_linear_908_7167" x1="26.878" y1="66.6507" x2="69.8429" y2="66.6507" gradientUnits="userSpaceOnUse">
<stop stop-color="#8371FF"/>
<stop offset="0.394435" stop-color="#A077FE"/>
<stop offset="1" stop-color="#01C7E4"/>
</linearGradient>
<linearGradient id="paint6_linear_908_7167" x1="52.4416" y1="57.0728" x2="55.5461" y2="57.0728" gradientUnits="userSpaceOnUse">
<stop stop-color="#8371FF"/>
<stop offset="0.394435" stop-color="#A077FE"/>
<stop offset="1" stop-color="#01C7E4"/>
</linearGradient>
<linearGradient id="paint7_linear_908_7167" x1="53.5776" y1="58.4215" x2="54.9044" y2="58.4215" gradientUnits="userSpaceOnUse">
<stop stop-color="#8371FF"/>
<stop offset="0.394435" stop-color="#A077FE"/>
<stop offset="1" stop-color="#01C7E4"/>
</linearGradient>
</defs>
</svg>
