<svg width="109" height="109" viewBox="0 0 109 109" fill="none" xmlns="http://www.w3.org/2000/svg">
<g clip-path="url(#clip0_908_7197)">
<rect x="0.5" y="0.935547" width="108" height="108" rx="54" fill="url(#paint0_linear_908_7197)" fill-opacity="0.4"/>
<path d="M-26.2344 78.4216C-26.2344 73.5708 -23.645 69.6387 -20.4507 69.6387H30.2908C33.485 69.6387 36.0744 73.5708 36.0744 78.4216V95.9573C36.0744 100.808 33.485 104.74 30.2908 104.74H-26.2344V78.4216Z" fill="url(#paint1_linear_908_7197)"/>
<path d="M41.0469 79.579C41.0469 74.0891 44.3204 69.6387 48.3586 69.6387H112.507C116.545 69.6387 119.819 74.0891 119.819 79.579V99.4258C119.819 104.916 116.545 109.366 112.507 109.366H41.0469V79.579Z" fill="url(#paint2_linear_908_7197)"/>
<path d="M-34.1797 45.8722C-34.1797 42.4586 -32.3062 39.6914 -29.995 39.6914H6.71875C9.02994 39.6914 10.9035 42.4586 10.9035 45.8722V58.2127C10.9035 61.6262 9.02994 64.3934 6.71875 64.3934H-34.1797V45.8722Z" fill="url(#paint3_linear_908_7197)"/>
<path d="M97.2734 45.0753C97.2734 41.6617 99.147 38.8945 101.458 38.8945H138.172C140.483 38.8945 142.357 41.6617 142.357 45.0753V57.4158C142.357 60.8294 140.483 63.5966 138.172 63.5966H97.2734V45.0753Z" fill="url(#paint4_linear_908_7197)"/>
<path d="M-17.4688 6.59734C-17.4688 1.74662 -14.8794 -2.18555 -11.6851 -2.18555H39.0564C42.2507 -2.18555 44.84 1.74662 44.84 6.59734V24.1331C44.84 28.9838 42.2507 32.916 39.0564 32.916H-17.4688V6.59734Z" fill="url(#paint5_linear_908_7197)"/>
<path d="M54.8438 7.81414C54.8438 2.96342 57.4331 -0.96875 60.6274 -0.96875H111.369C114.563 -0.96875 117.153 2.96342 117.153 7.81414V25.3499C117.153 30.2006 114.563 34.1328 111.369 34.1328H54.8438V7.81414Z" fill="url(#paint6_linear_908_7197)"/>
<path d="M27.4739 7.03516H-10.4228C-11.0954 7.03516 -11.6406 7.59682 -11.6406 8.28967C-11.6406 8.98251 -11.0954 9.54417 -10.4228 9.54417H27.4739C28.1465 9.54417 28.6918 8.98251 28.6918 8.28967C28.6918 7.59682 28.1465 7.03516 27.4739 7.03516Z" fill="white" fill-opacity="0.6"/>
<path d="M100.247 6.79297H62.3507C61.6781 6.79297 61.1328 7.35463 61.1328 8.04748C61.1328 8.74032 61.6781 9.30199 62.3507 9.30199H100.247C100.92 9.30199 101.465 8.74032 101.465 8.04748C101.465 7.35463 100.92 6.79297 100.247 6.79297Z" fill="white" fill-opacity="0.6"/>
<path d="M100.247 18.9199H62.3507C61.6781 18.9199 61.1328 19.4816 61.1328 20.1744C61.1328 20.8673 61.6781 21.4289 62.3507 21.4289H100.247C100.92 21.4289 101.465 20.8673 101.465 20.1744C101.465 19.4816 100.92 18.9199 100.247 18.9199Z" fill="white" fill-opacity="0.6"/>
<path d="M20.2552 79.4297H-17.6415C-18.3141 79.4297 -18.8594 79.9914 -18.8594 80.6842C-18.8594 81.377 -18.3141 81.9387 -17.6415 81.9387H20.2552C20.9278 81.9387 21.473 81.377 21.473 80.6842C21.473 79.9914 20.9278 79.4297 20.2552 79.4297Z" fill="white" fill-opacity="0.6"/>
<path d="M131.068 45.8438H103.904C103.422 45.8438 103.031 46.4054 103.031 47.0983C103.031 47.7911 103.422 48.3528 103.904 48.3528H131.068C131.55 48.3528 131.941 47.7911 131.941 47.0983C131.941 46.4054 131.55 45.8438 131.068 45.8438Z" fill="white" fill-opacity="0.6"/>
<path d="M103.313 81.9395H49.7752C48.825 81.9395 48.0547 82.5011 48.0547 83.194C48.0547 83.8868 48.825 84.4485 49.7752 84.4485H103.313C104.263 84.4485 105.033 83.8868 105.033 83.194C105.033 82.5011 104.263 81.9395 103.313 81.9395Z" fill="white" fill-opacity="0.6"/>
<path d="M33.9594 13.0977H-10.4228C-11.0954 13.0977 -11.6406 13.6593 -11.6406 14.3522C-11.6406 15.045 -11.0954 15.6067 -10.4228 15.6067H33.9594C34.632 15.6067 35.1773 15.045 35.1773 14.3522C35.1773 13.6593 34.632 13.0977 33.9594 13.0977Z" fill="white" fill-opacity="0.6"/>
<path d="M106.733 12.8574H62.3507C61.6781 12.8574 61.1328 13.4191 61.1328 14.1119C61.1328 14.8048 61.6781 15.3664 62.3507 15.3664H106.733C107.405 15.3664 107.951 14.8048 107.951 14.1119C107.951 13.4191 107.405 12.8574 106.733 12.8574Z" fill="white" fill-opacity="0.6"/>
<path d="M106.733 24.9824H62.3507C61.6781 24.9824 61.1328 25.5441 61.1328 26.2369C61.1328 26.9298 61.6781 27.4914 62.3507 27.4914H106.733C107.405 27.4914 107.951 26.9298 107.951 26.2369C107.951 25.5441 107.405 24.9824 106.733 24.9824Z" fill="white" fill-opacity="0.6"/>
<path d="M26.7407 85.4922H-17.6415C-18.3141 85.4922 -18.8594 86.0539 -18.8594 86.7467C-18.8594 87.4395 -18.3141 88.0012 -17.6415 88.0012H26.7407C27.4133 88.0012 27.9585 87.4395 27.9585 86.7467C27.9585 86.0539 27.4133 85.4922 26.7407 85.4922Z" fill="white" fill-opacity="0.6"/>
<path d="M4.27121 52.7051H-27.5411C-28.0232 52.7051 -28.4141 53.2667 -28.4141 53.9596C-28.4141 54.6524 -28.0232 55.2141 -27.5411 55.2141H4.27121C4.75331 55.2141 5.14414 54.6524 5.14414 53.9596C5.14414 53.2667 4.75331 52.7051 4.27121 52.7051Z" fill="white" fill-opacity="0.6"/>
<path d="M135.717 51.9062H103.904C103.422 51.9062 103.031 52.4679 103.031 53.1608C103.031 53.8536 103.422 54.4153 103.904 54.4153H135.717C136.199 54.4153 136.589 53.8536 136.589 53.1608C136.589 52.4679 136.199 51.9062 135.717 51.9062Z" fill="white" fill-opacity="0.6"/>
<path d="M112.475 88.002H49.7752C48.825 88.002 48.0547 88.5636 48.0547 89.2565C48.0547 89.9493 48.825 90.511 49.7752 90.511H112.475C113.425 90.511 114.195 89.9493 114.195 89.2565C114.195 88.5636 113.425 88.002 112.475 88.002Z" fill="white" fill-opacity="0.6"/>
<path d="M112.475 94.0645H49.7752C48.825 94.0645 48.0547 94.6261 48.0547 95.319C48.0547 96.0118 48.825 96.5735 49.7752 96.5735H112.475C113.425 96.5735 114.195 96.0118 114.195 95.319C114.195 94.6261 113.425 94.0645 112.475 94.0645Z" fill="white" fill-opacity="0.6"/>
<path d="M24.9473 57.0284C24.9473 53.919 22.4267 51.3984 19.3174 51.3984C16.2081 51.3984 13.6875 53.919 13.6875 57.0284C13.6875 60.1377 16.2081 62.6583 19.3174 62.6583C22.4267 62.6583 24.9473 60.1377 24.9473 57.0284Z" fill="url(#paint7_linear_908_7197)"/>
<path d="M21.2978 59.5639V59.0687C21.2978 58.806 21.1933 58.554 21.0077 58.3682C20.8219 58.1826 20.5699 58.0781 20.3072 58.0781H18.3263C18.0636 58.0781 17.8118 58.1826 17.626 58.3682C17.4402 58.554 17.3359 58.806 17.3359 59.0687V59.5639" fill="white"/>
<path d="M19.3185 56.8579C19.8655 56.8579 20.3091 56.4143 20.3091 55.8673C20.3091 55.3203 19.8655 54.877 19.3185 54.877C18.7714 54.877 18.3281 55.3203 18.3281 55.8673C18.3281 56.4143 18.7714 56.8579 19.3185 56.8579Z" fill="white"/>
<path d="M30.6562 45.5448C30.6562 42.3907 33.213 39.834 36.367 39.834H86.4694C89.6234 39.834 92.1802 42.3907 92.1802 45.5448V56.9468C92.1802 60.1008 89.6234 62.6576 86.4694 62.6576H30.6562V45.5448Z" fill="url(#paint8_linear_908_7197)"/>
<path d="M30.6562 45.5448C30.6562 42.3907 33.213 39.834 36.367 39.834H86.4694C89.6234 39.834 92.1802 42.3907 92.1802 45.5448V56.9468C92.1802 60.1008 89.6234 62.6576 86.4694 62.6576H30.6562V45.5448Z" fill="url(#paint9_linear_908_7197)"/>
<path d="M37.3183 47.5682H85.5269C85.8527 47.5682 86.1169 47.8323 86.1169 48.1582C86.1169 48.484 85.8527 48.7481 85.5269 48.7481H37.3183C36.9925 48.7481 36.7283 48.484 36.7283 48.1582C36.7283 47.8323 36.9925 47.5682 37.3183 47.5682Z" fill="white" stroke="white" stroke-width="0.237949"/>
<path d="M37.3183 53.744H74.131C74.4569 53.744 74.721 54.0081 74.721 54.3339C74.721 54.6598 74.4569 54.9239 74.131 54.9239H37.3183C36.9925 54.9239 36.7283 54.6598 36.7283 54.3339C36.7283 54.0081 36.9925 53.744 37.3183 53.744Z" fill="white" stroke="white" stroke-width="0.237949"/>
</g>
<rect x="1.5" y="1.93555" width="106" height="106" rx="53" stroke="white" stroke-width="2"/>
<defs>
<linearGradient id="paint0_linear_908_7197" x1="-42.1374" y1="97.4354" x2="108.5" y2="97.4354" gradientUnits="userSpaceOnUse">
<stop stop-color="#8371FF"/>
<stop offset="0.394435" stop-color="#A077FE"/>
<stop offset="1" stop-color="#01C7E4"/>
</linearGradient>
<linearGradient id="paint1_linear_908_7197" x1="4.91989" y1="13.7937" x2="4.91989" y2="143.632" gradientUnits="userSpaceOnUse">
<stop stop-color="#9203FC" stop-opacity="0.52"/>
<stop offset="1" stop-color="#9203FC" stop-opacity="0"/>
</linearGradient>
<linearGradient id="paint2_linear_908_7197" x1="80.4326" y1="6.43395" x2="80.4326" y2="153.383" gradientUnits="userSpaceOnUse">
<stop stop-color="#9203FC" stop-opacity="0.52"/>
<stop offset="1" stop-color="#9203FC" stop-opacity="0"/>
</linearGradient>
<linearGradient id="paint3_linear_908_7197" x1="-11.6382" y1="0.391562" x2="-11.6382" y2="91.7625" gradientUnits="userSpaceOnUse">
<stop stop-color="#9203FC" stop-opacity="0.52"/>
<stop offset="1" stop-color="#9203FC" stop-opacity="0"/>
</linearGradient>
<linearGradient id="paint4_linear_908_7197" x1="119.815" y1="-0.405313" x2="119.815" y2="90.9656" gradientUnits="userSpaceOnUse">
<stop stop-color="#9203FC" stop-opacity="0.52"/>
<stop offset="1" stop-color="#9203FC" stop-opacity="0"/>
</linearGradient>
<linearGradient id="paint5_linear_908_7197" x1="13.6855" y1="-58.0305" x2="13.6855" y2="71.8073" gradientUnits="userSpaceOnUse">
<stop stop-color="#9203FC" stop-opacity="0.52"/>
<stop offset="1" stop-color="#9203FC" stop-opacity="0"/>
</linearGradient>
<linearGradient id="paint6_linear_908_7197" x1="85.998" y1="-56.8137" x2="85.998" y2="73.0241" gradientUnits="userSpaceOnUse">
<stop stop-color="#9203FC" stop-opacity="0.52"/>
<stop offset="1" stop-color="#9203FC" stop-opacity="0"/>
</linearGradient>
<linearGradient id="paint7_linear_908_7197" x1="9.24222" y1="61.4593" x2="24.9473" y2="61.4593" gradientUnits="userSpaceOnUse">
<stop stop-color="#8371FF"/>
<stop offset="0.394435" stop-color="#A077FE"/>
<stop offset="1" stop-color="#01C7E4"/>
</linearGradient>
<linearGradient id="paint8_linear_908_7197" x1="6.36715" y1="60.2273" x2="92.1802" y2="60.2273" gradientUnits="userSpaceOnUse">
<stop stop-color="#8371FF"/>
<stop offset="0.394435" stop-color="#A077FE"/>
<stop offset="1" stop-color="#01C7E4"/>
</linearGradient>
<linearGradient id="paint9_linear_908_7197" x1="61.4181" y1="3.52261" x2="61.4181" y2="87.9454" gradientUnits="userSpaceOnUse">
<stop stop-color="#9203FC" stop-opacity="0.52"/>
<stop offset="1" stop-color="#9203FC" stop-opacity="0"/>
</linearGradient>
<clipPath id="clip0_908_7197">
<rect x="0.5" y="0.935547" width="108" height="108" rx="54" fill="white"/>
</clipPath>
</defs>
</svg>
