<svg width="110" height="33" viewBox="0 0 110 33" fill="none" xmlns="http://www.w3.org/2000/svg">
<g filter="url(#filter0_b_1500_19097)">
<rect x="0.616211" y="0.0996094" width="109" height="32" rx="16" fill="white" fill-opacity="0.5"/>
<rect x="6.61621" y="6.09961" width="20" height="20" rx="10" fill="url(#paint0_linear_1500_19097)"/>
<path d="M10.6162 13.5996C11.9971 13.5996 13.1162 12.4805 13.1162 11.0996C13.1162 12.4805 14.2353 13.5996 15.6162 13.5996C14.2353 13.5996 13.1162 14.7187 13.1162 16.0996C13.1162 14.7187 11.9971 13.5996 10.6162 13.5996Z" fill="white"/>
<path d="M12.6162 18.0996C15.377 18.0996 17.6162 15.8604 17.6162 13.0996C17.6162 15.8604 19.8554 18.0996 22.6162 18.0996C19.8554 18.0996 17.6162 20.3387 17.6162 23.0996C17.6162 20.3387 15.377 18.0996 12.6162 18.0996Z" fill="white"/>
<path d="M39.8762 14.1596C39.6442 13.6716 39.3082 13.2956 38.8682 13.0316C38.4282 12.7596 37.9162 12.6236 37.3322 12.6236C36.7482 12.6236 36.2202 12.7596 35.7482 13.0316C35.2842 13.2956 34.9162 13.6796 34.6442 14.1836C34.3802 14.6796 34.2482 15.2556 34.2482 15.9116C34.2482 16.5676 34.3802 17.1436 34.6442 17.6396C34.9162 18.1356 35.2842 18.5196 35.7482 18.7916C36.2202 19.0556 36.7482 19.1876 37.3322 19.1876C38.1482 19.1876 38.8202 18.9436 39.3482 18.4556C39.8762 17.9676 40.1842 17.3076 40.2722 16.4756H36.9362V15.5876H41.4362V16.4276C41.3722 17.1156 41.1562 17.7476 40.7882 18.3236C40.4202 18.8916 39.9362 19.3436 39.3362 19.6796C38.7362 20.0076 38.0682 20.1716 37.3322 20.1716C36.5562 20.1716 35.8482 19.9916 35.2082 19.6316C34.5682 19.2636 34.0602 18.7556 33.6842 18.1076C33.3162 17.4596 33.1322 16.7276 33.1322 15.9116C33.1322 15.0956 33.3162 14.3636 33.6842 13.7156C34.0602 13.0596 34.5682 12.5516 35.2082 12.1916C35.8482 11.8236 36.5562 11.6396 37.3322 11.6396C38.2202 11.6396 39.0042 11.8596 39.6842 12.2996C40.3722 12.7396 40.8722 13.3596 41.1842 14.1596H39.8762ZM45.7481 20.2076C45.1321 20.2076 44.5721 20.0676 44.0681 19.7876C43.5721 19.5076 43.1801 19.1116 42.8921 18.5996C42.6121 18.0796 42.4721 17.4796 42.4721 16.7996C42.4721 16.1276 42.6161 15.5356 42.9041 15.0236C43.2001 14.5036 43.6001 14.1076 44.1041 13.8356C44.6081 13.5556 45.1721 13.4156 45.7961 13.4156C46.4201 13.4156 46.9841 13.5556 47.4881 13.8356C47.9921 14.1076 48.3881 14.4996 48.6761 15.0116C48.9721 15.5236 49.1201 16.1196 49.1201 16.7996C49.1201 17.4796 48.9681 18.0796 48.6641 18.5996C48.3681 19.1116 47.9641 19.5076 47.4521 19.7876C46.9401 20.0676 46.3721 20.2076 45.7481 20.2076ZM45.7481 19.2476C46.1401 19.2476 46.5081 19.1556 46.8521 18.9716C47.1961 18.7876 47.4721 18.5116 47.6801 18.1436C47.8961 17.7756 48.0041 17.3276 48.0041 16.7996C48.0041 16.2716 47.9001 15.8236 47.6921 15.4556C47.4841 15.0876 47.2121 14.8156 46.8761 14.6396C46.5401 14.4556 46.1761 14.3636 45.7841 14.3636C45.3841 14.3636 45.0161 14.4556 44.6801 14.6396C44.3521 14.8156 44.0881 15.0876 43.8881 15.4556C43.6881 15.8236 43.5881 16.2716 43.5881 16.7996C43.5881 17.3356 43.6841 17.7876 43.8761 18.1556C44.0761 18.5236 44.3401 18.7996 44.6681 18.9836C44.9961 19.1596 45.3561 19.2476 45.7481 19.2476ZM53.2078 20.1836C52.6558 20.1836 52.1598 20.0876 51.7198 19.8956C51.2878 19.6956 50.9478 19.4236 50.6998 19.0796C50.4518 18.7276 50.3238 18.3236 50.3158 17.8676H51.4798C51.5198 18.2596 51.6798 18.5916 51.9598 18.8636C52.2478 19.1276 52.6638 19.2596 53.2078 19.2596C53.7278 19.2596 54.1358 19.1316 54.4318 18.8756C54.7358 18.6116 54.8878 18.2756 54.8878 17.8676C54.8878 17.5476 54.7998 17.2876 54.6238 17.0876C54.4478 16.8876 54.2278 16.7356 53.9638 16.6316C53.6998 16.5276 53.3438 16.4156 52.8958 16.2956C52.3438 16.1516 51.8998 16.0076 51.5638 15.8636C51.2358 15.7196 50.9518 15.4956 50.7118 15.1916C50.4798 14.8796 50.3638 14.4636 50.3638 13.9436C50.3638 13.4876 50.4798 13.0836 50.7118 12.7316C50.9438 12.3796 51.2678 12.1076 51.6838 11.9156C52.1078 11.7236 52.5918 11.6276 53.1358 11.6276C53.9198 11.6276 54.5598 11.8236 55.0558 12.2156C55.5598 12.6076 55.8438 13.1276 55.9078 13.7756H54.7078C54.6678 13.4556 54.4998 13.1756 54.2038 12.9356C53.9078 12.6876 53.5158 12.5636 53.0278 12.5636C52.5718 12.5636 52.1998 12.6836 51.9118 12.9236C51.6238 13.1556 51.4798 13.4836 51.4798 13.9076C51.4798 14.2116 51.5638 14.4596 51.7318 14.6516C51.9078 14.8436 52.1198 14.9916 52.3678 15.0956C52.6238 15.1916 52.9798 15.3036 53.4358 15.4316C53.9878 15.5836 54.4318 15.7356 54.7678 15.8876C55.1038 16.0316 55.3918 16.2596 55.6318 16.5716C55.8718 16.8756 55.9918 17.2916 55.9918 17.8196C55.9918 18.2276 55.8838 18.6116 55.6678 18.9716C55.4518 19.3316 55.1318 19.6236 54.7078 19.8476C54.2838 20.0716 53.7838 20.1836 53.2078 20.1836ZM58.9308 14.4236V18.2996C58.9308 18.6196 58.9988 18.8476 59.1348 18.9836C59.2708 19.1116 59.5068 19.1756 59.8428 19.1756H60.6468V20.0996H59.6628C59.0548 20.0996 58.5988 19.9596 58.2948 19.6796C57.9908 19.3996 57.8388 18.9396 57.8388 18.2996V14.4236H56.9868V13.5236H57.8388V11.8676H58.9308V13.5236H60.6468V14.4236H58.9308ZM67.8019 13.5236V20.0996H66.7099V19.1276C66.5019 19.4636 66.2099 19.7276 65.8339 19.9196C65.4659 20.1036 65.0579 20.1956 64.6099 20.1956C64.0979 20.1956 63.6379 20.0916 63.2299 19.8836C62.8219 19.6676 62.4979 19.3476 62.2579 18.9236C62.0259 18.4996 61.9099 17.9836 61.9099 17.3756V13.5236H62.9899V17.2316C62.9899 17.8796 63.1539 18.3796 63.4819 18.7316C63.8099 19.0756 64.2579 19.2476 64.8259 19.2476C65.4099 19.2476 65.8699 19.0676 66.2059 18.7076C66.5419 18.3476 66.7099 17.8236 66.7099 17.1356V13.5236H67.8019ZM69.2377 16.7876C69.2377 16.1156 69.3737 15.5276 69.6457 15.0236C69.9177 14.5116 70.2897 14.1156 70.7617 13.8356C71.2417 13.5556 71.7777 13.4156 72.3697 13.4156C72.8817 13.4156 73.3577 13.5356 73.7977 13.7756C74.2377 14.0076 74.5737 14.3156 74.8057 14.6996V11.2196H75.9097V20.0996H74.8057V18.8636C74.5897 19.2556 74.2697 19.5796 73.8457 19.8356C73.4217 20.0836 72.9257 20.2076 72.3577 20.2076C71.7737 20.2076 71.2417 20.0636 70.7617 19.7756C70.2897 19.4876 69.9177 19.0836 69.6457 18.5636C69.3737 18.0436 69.2377 17.4516 69.2377 16.7876ZM74.8057 16.7996C74.8057 16.3036 74.7057 15.8716 74.5057 15.5036C74.3057 15.1356 74.0337 14.8556 73.6897 14.6636C73.3537 14.4636 72.9817 14.3636 72.5737 14.3636C72.1657 14.3636 71.7937 14.4596 71.4577 14.6516C71.1217 14.8436 70.8537 15.1236 70.6537 15.4916C70.4537 15.8596 70.3537 16.2916 70.3537 16.7876C70.3537 17.2916 70.4537 17.7316 70.6537 18.1076C70.8537 18.4756 71.1217 18.7596 71.4577 18.9596C71.7937 19.1516 72.1657 19.2476 72.5737 19.2476C72.9817 19.2476 73.3537 19.1516 73.6897 18.9596C74.0337 18.7596 74.3057 18.4756 74.5057 18.1076C74.7057 17.7316 74.8057 17.2956 74.8057 16.7996ZM78.3191 12.4556C78.1111 12.4556 77.9351 12.3836 77.7911 12.2396C77.6471 12.0956 77.5751 11.9196 77.5751 11.7116C77.5751 11.5036 77.6471 11.3276 77.7911 11.1836C77.9351 11.0396 78.1111 10.9676 78.3191 10.9676C78.5191 10.9676 78.6871 11.0396 78.8231 11.1836C78.9671 11.3276 79.0391 11.5036 79.0391 11.7116C79.0391 11.9196 78.9671 12.0956 78.8231 12.2396C78.6871 12.3836 78.5191 12.4556 78.3191 12.4556ZM78.8471 13.5236V20.0996H77.7551V13.5236H78.8471ZM83.5762 20.2076C82.9602 20.2076 82.4002 20.0676 81.8962 19.7876C81.4002 19.5076 81.0082 19.1116 80.7202 18.5996C80.4402 18.0796 80.3002 17.4796 80.3002 16.7996C80.3002 16.1276 80.4442 15.5356 80.7322 15.0236C81.0282 14.5036 81.4282 14.1076 81.9322 13.8356C82.4362 13.5556 83.0002 13.4156 83.6242 13.4156C84.2482 13.4156 84.8122 13.5556 85.3162 13.8356C85.8202 14.1076 86.2162 14.4996 86.5042 15.0116C86.8002 15.5236 86.9482 16.1196 86.9482 16.7996C86.9482 17.4796 86.7962 18.0796 86.4922 18.5996C86.1962 19.1116 85.7922 19.5076 85.2802 19.7876C84.7682 20.0676 84.2002 20.2076 83.5762 20.2076ZM83.5762 19.2476C83.9682 19.2476 84.3362 19.1556 84.6802 18.9716C85.0242 18.7876 85.3002 18.5116 85.5082 18.1436C85.7242 17.7756 85.8322 17.3276 85.8322 16.7996C85.8322 16.2716 85.7282 15.8236 85.5202 15.4556C85.3122 15.0876 85.0402 14.8156 84.7042 14.6396C84.3682 14.4556 84.0042 14.3636 83.6122 14.3636C83.2122 14.3636 82.8442 14.4556 82.5082 14.6396C82.1802 14.8156 81.9162 15.0876 81.7162 15.4556C81.5162 15.8236 81.4162 16.2716 81.4162 16.7996C81.4162 17.3356 81.5122 17.7876 81.7042 18.1556C81.9042 18.5236 82.1682 18.7996 82.4962 18.9836C82.8242 19.1596 83.1842 19.2476 83.5762 19.2476ZM88.732 20.1716C88.524 20.1716 88.348 20.0996 88.204 19.9556C88.06 19.8116 87.988 19.6356 87.988 19.4276C87.988 19.2196 88.06 19.0436 88.204 18.8996C88.348 18.7556 88.524 18.6836 88.732 18.6836C88.932 18.6836 89.1 18.7556 89.236 18.8996C89.38 19.0436 89.452 19.2196 89.452 19.4276C89.452 19.6356 89.38 19.8116 89.236 19.9556C89.1 20.0996 88.932 20.1716 88.732 20.1716ZM90.4955 16.7876C90.4955 16.1156 90.6315 15.5276 90.9035 15.0236C91.1755 14.5116 91.5475 14.1156 92.0195 13.8356C92.4995 13.5556 93.0315 13.4156 93.6155 13.4156C94.1915 13.4156 94.6915 13.5396 95.1155 13.7876C95.5395 14.0356 95.8555 14.3476 96.0635 14.7236V13.5236H97.1675V20.0996H96.0635V18.8756C95.8475 19.2596 95.5235 19.5796 95.0915 19.8356C94.6675 20.0836 94.1715 20.2076 93.6035 20.2076C93.0195 20.2076 92.4915 20.0636 92.0195 19.7756C91.5475 19.4876 91.1755 19.0836 90.9035 18.5636C90.6315 18.0436 90.4955 17.4516 90.4955 16.7876ZM96.0635 16.7996C96.0635 16.3036 95.9635 15.8716 95.7635 15.5036C95.5635 15.1356 95.2915 14.8556 94.9475 14.6636C94.6115 14.4636 94.2395 14.3636 93.8315 14.3636C93.4235 14.3636 93.0515 14.4596 92.7155 14.6516C92.3795 14.8436 92.1115 15.1236 91.9115 15.4916C91.7115 15.8596 91.6115 16.2916 91.6115 16.7876C91.6115 17.2916 91.7115 17.7316 91.9115 18.1076C92.1115 18.4756 92.3795 18.7596 92.7155 18.9596C93.0515 19.1516 93.4235 19.2476 93.8315 19.2476C94.2395 19.2476 94.6115 19.1516 94.9475 18.9596C95.2915 18.7596 95.5635 18.4756 95.7635 18.1076C95.9635 17.7316 96.0635 17.2956 96.0635 16.7996ZM99.5769 12.4556C99.3689 12.4556 99.1929 12.3836 99.0489 12.2396C98.9049 12.0956 98.8329 11.9196 98.8329 11.7116C98.8329 11.5036 98.9049 11.3276 99.0489 11.1836C99.1929 11.0396 99.3689 10.9676 99.5769 10.9676C99.7769 10.9676 99.9449 11.0396 100.081 11.1836C100.225 11.3276 100.297 11.5036 100.297 11.7116C100.297 11.9196 100.225 12.0956 100.081 12.2396C99.9449 12.3836 99.7769 12.4556 99.5769 12.4556ZM100.105 13.5236V20.0996H99.0129V13.5236H100.105Z" fill="#374151"/>
</g>
<defs>
<filter id="filter0_b_1500_19097" x="-7.38379" y="-7.90039" width="125" height="48" filterUnits="userSpaceOnUse" color-interpolation-filters="sRGB">
<feFlood flood-opacity="0" result="BackgroundImageFix"/>
<feGaussianBlur in="BackgroundImageFix" stdDeviation="4"/>
<feComposite in2="SourceAlpha" operator="in" result="effect1_backgroundBlur_1500_19097"/>
<feBlend mode="normal" in="SourceGraphic" in2="effect1_backgroundBlur_1500_19097" result="shape"/>
</filter>
<linearGradient id="paint0_linear_1500_19097" x1="-1.27961" y1="23.9699" x2="26.6162" y2="23.9699" gradientUnits="userSpaceOnUse">
<stop stop-color="#8371FF"/>
<stop offset="0.394435" stop-color="#A077FE"/>
<stop offset="1" stop-color="#01C7E4"/>
</linearGradient>
</defs>
</svg>
