<svg width="165" height="67" viewBox="0 0 165 67" fill="none" xmlns="http://www.w3.org/2000/svg">
<g clip-path="url(#clip0_1175_30259)">
<rect x="11.3125" y="14.1113" width="38.221" height="38.221" rx="19.1105" fill="url(#paint0_linear_1175_30259)"/>
<path d="M51.149 60.6021L26.4654 36.0591L21.4844 26.7973L43.7537 25.0234L54.4139 34.8981L51.149 60.6021Z" fill="#1E1E1E"/>
<path d="M51.8335 62.858L22.7969 44.7152L22.943 39.1644L34.9179 36.6445L51.8335 39.6351V62.858Z" fill="#1E1E1E"/>
<path fill-rule="evenodd" clip-rule="evenodd" d="M36.8636 29.9435V29.2911C36.8636 27.8928 37.9986 26.7568 39.3996 26.7568C40.7986 26.7568 41.9322 27.8912 41.9322 29.2877V29.9435C41.9322 31.3432 40.7975 32.4778 39.3979 32.4778C37.9982 32.4778 36.8636 31.3432 36.8636 29.9435ZM33.2923 29.9435V29.2911C33.2923 28.3876 33.4887 27.53 33.841 26.7585H27.0365C25.4571 26.7585 24.1767 28.0389 24.1767 29.6183V30.0024C24.1767 31.3697 25.2852 32.4782 26.6525 32.4782C28.0199 32.4782 29.1283 31.3697 29.1283 30.0024V29.2319C29.1283 28.2457 29.9278 27.4463 30.9139 27.4463C31.9001 27.4463 32.6996 28.2457 32.6996 29.2319V30.0024C32.6996 32.5131 31.1694 34.6665 28.9907 35.5808C31.1523 36.0413 32.7736 37.9615 32.7736 40.2605C32.7736 43.1885 30.4 45.5621 27.472 45.5621H25.6057C22.8204 45.5621 20.5625 43.3042 20.5625 40.5189C20.5625 38.1465 22.2006 36.1568 24.4074 35.619C22.1793 34.7275 20.6054 32.5488 20.6054 30.0024V29.6183C20.6054 26.0665 23.4847 23.1872 27.0365 23.1872H39.0656C39.099 23.1872 39.1323 23.1881 39.1653 23.19C39.243 23.187 39.3211 23.1855 39.3996 23.1855C42.7697 23.1855 45.5034 25.9176 45.5034 29.2877V29.9435C45.5034 33.3155 42.7699 36.0491 39.3979 36.0491C36.0259 36.0491 33.2923 33.3155 33.2923 29.9435ZM27.9889 39.047H25.6057C24.7928 39.047 24.1338 39.706 24.1338 40.5189C24.1338 41.3318 24.7928 41.9908 25.6057 41.9908H27.472C28.4277 41.9908 29.2024 41.2161 29.2024 40.2605C29.2024 39.5903 28.6591 39.047 27.9889 39.047Z" fill="white"/>
</g>
<path d="M62.644 27.0128C64.2845 27.0128 65.7246 27.2953 66.9641 27.8604C68.2036 28.4255 69.2608 29.264 70.1358 30.3759L68.0304 32.8093C67.2831 31.8615 66.4628 31.1688 65.5696 30.7313C64.6947 30.2756 63.6739 30.0478 62.5073 30.0478C61.7417 30.0478 61.1037 30.148 60.5933 30.3485C60.1012 30.549 59.7366 30.8134 59.4997 31.1415C59.2809 31.4696 59.1716 31.8341 59.1716 32.2351C59.1716 32.7273 59.3629 33.1465 59.7457 33.4929C60.1285 33.821 60.7847 34.0944 61.7144 34.3131L65.0775 35.0787C66.8638 35.4797 68.1398 36.0813 68.9054 36.8833C69.6892 37.6671 70.0811 38.6879 70.0811 39.9456C70.0811 41.1305 69.7712 42.1512 69.1514 43.0079C68.5317 43.8464 67.6658 44.4935 66.5539 44.9492C65.442 45.3867 64.1661 45.6055 62.726 45.6055C61.4683 45.6055 60.3108 45.4596 59.2536 45.168C58.2146 44.8581 57.2849 44.4389 56.4647 43.9102C55.6444 43.3816 54.9609 42.771 54.414 42.0783L56.5467 39.5355C56.966 40.1188 57.4855 40.6383 58.1052 41.094C58.725 41.5497 59.4267 41.9143 60.2106 42.1877C61.0126 42.4429 61.8511 42.5705 62.726 42.5705C63.4734 42.5705 64.1023 42.4884 64.6126 42.3244C65.1413 42.1421 65.5332 41.896 65.7884 41.5862C66.0618 41.2581 66.1985 40.8661 66.1985 40.4104C66.1985 39.9365 66.0344 39.5355 65.7063 39.2074C65.3964 38.8611 64.8132 38.5967 63.9564 38.4145L60.2926 37.5942C59.2354 37.339 58.3239 37.0109 57.5584 36.6099C56.811 36.1906 56.2368 35.662 55.8358 35.024C55.453 34.3678 55.2616 33.5931 55.2616 32.7C55.2616 31.6245 55.5533 30.6584 56.1366 29.8017C56.7199 28.945 57.5584 28.2705 58.6521 27.7784C59.764 27.268 61.0946 27.0128 62.644 27.0128ZM75.6467 27.4776V40.8753C75.6467 41.5315 75.8107 42.0145 76.1389 42.3244C76.4852 42.616 76.95 42.7619 77.5333 42.7619C77.989 42.7619 78.39 42.6981 78.7364 42.5705C79.0827 42.4246 79.3926 42.2333 79.666 41.9963L80.2675 44.4844C79.83 44.8308 79.2832 45.1042 78.627 45.3047C77.9708 45.5052 77.2781 45.6055 76.549 45.6055C75.6376 45.6055 74.8264 45.4687 74.1155 45.1953C73.4229 44.9219 72.876 44.4844 72.475 43.8829C72.0922 43.2814 71.9008 42.4793 71.9008 41.4768V28.5166L75.6467 27.4776ZM80.0214 31.661V34.4499H69.3853V31.661H80.0214ZM84.8524 45.6055C83.941 45.6055 83.1208 45.4414 82.3917 45.1133C81.6625 44.7852 81.0792 44.2657 80.6418 43.5548C80.2225 42.8257 80.0129 41.8869 80.0129 40.7386V31.661H83.7588V39.8363C83.7588 40.8935 83.9775 41.6317 84.415 42.051C84.8524 42.452 85.4813 42.6525 86.3016 42.6525C86.6844 42.6525 87.058 42.5887 87.4226 42.4611C87.7872 42.3153 88.1062 42.0965 88.3796 41.8049C88.6712 41.5132 88.8991 41.1396 89.0631 40.6839C89.2272 40.2099 89.3092 39.654 89.3092 39.016V31.661H93.0551V45.332H89.7194L89.5826 42.9533C89.1269 43.8647 88.4981 44.5391 87.696 44.9766C86.9122 45.3958 85.9644 45.6055 84.8524 45.6055ZM99.7037 45.6055C98.5736 45.6055 97.5619 45.3229 96.6687 44.7578C95.7938 44.1928 95.1011 43.3816 94.5907 42.3244C94.0986 41.2672 93.8525 40.0003 93.8525 38.5238C93.8525 37.0109 94.1168 35.7258 94.6454 34.6686C95.174 33.5931 95.8849 32.782 96.7781 32.2351C97.6895 31.6701 98.7103 31.3875 99.8404 31.3875C101.043 31.3875 102.037 31.7339 102.821 32.4265C103.605 33.1192 104.115 34.0124 104.352 35.1061L103.996 35.5435V25.673H107.742V45.332H104.379L104.133 41.176L104.598 41.3948C104.47 42.2515 104.179 42.9988 103.723 43.6368C103.267 44.2566 102.693 44.7396 102 45.086C101.308 45.4323 100.542 45.6055 99.7037 45.6055ZM100.797 42.7345C101.454 42.7345 102.019 42.5705 102.493 42.2424C102.967 41.896 103.331 41.3948 103.586 40.7386C103.86 40.0823 103.996 39.2985 103.996 38.3871C103.996 37.5122 103.869 36.7739 103.614 36.1724C103.358 35.5527 102.994 35.0787 102.52 34.7506C102.046 34.4225 101.49 34.2585 100.852 34.2585C99.8313 34.2585 99.0293 34.623 98.446 35.3521C97.8809 36.063 97.5984 37.1112 97.5984 38.4965C97.5984 39.8818 97.8809 40.9391 98.446 41.6682C99.0111 42.3791 99.7949 42.7345 100.797 42.7345ZM111.104 29.6923C110.32 29.6923 109.737 29.5283 109.354 29.2002C108.971 28.8538 108.78 28.3526 108.78 27.6963C108.78 27.0219 108.971 26.5206 109.354 26.1925C109.737 25.8462 110.32 25.673 111.104 25.673C111.888 25.673 112.471 25.8462 112.854 26.1925C113.237 26.5206 113.428 27.0219 113.428 27.6963C113.428 28.3526 113.237 28.8538 112.854 29.2002C112.471 29.5283 111.888 29.6923 111.104 29.6923ZM112.963 31.661V45.332H109.218V31.661H112.963ZM120.707 31.3875C122.093 31.3875 123.305 31.6701 124.344 32.2351C125.401 32.8002 126.221 33.6114 126.805 34.6686C127.406 35.7258 127.707 37.0018 127.707 38.4965C127.707 39.973 127.406 41.2489 126.805 42.3244C126.221 43.3816 125.401 44.1928 124.344 44.7578C123.305 45.3229 122.093 45.6055 120.707 45.6055C119.34 45.6055 118.128 45.3229 117.071 44.7578C116.014 44.1928 115.184 43.3816 114.583 42.3244C113.999 41.2489 113.708 39.973 113.708 38.4965C113.708 37.0018 113.999 35.7258 114.583 34.6686C115.184 33.6114 116.014 32.8002 117.071 32.2351C118.128 31.6701 119.34 31.3875 120.707 31.3875ZM120.707 34.1764C120.015 34.1764 119.422 34.3405 118.93 34.6686C118.456 34.9785 118.092 35.4524 117.836 36.0904C117.581 36.7284 117.454 37.5304 117.454 38.4965C117.454 39.4626 117.581 40.2646 117.836 40.9026C118.092 41.5406 118.456 42.0236 118.93 42.3517C119.422 42.6616 120.015 42.8166 120.707 42.8166C121.382 42.8166 121.956 42.6616 122.43 42.3517C122.922 42.0236 123.296 41.5406 123.551 40.9026C123.806 40.2646 123.934 39.4626 123.934 38.4965C123.934 37.5304 123.806 36.7284 123.551 36.0904C123.296 35.4524 122.922 34.9785 122.43 34.6686C121.956 34.3405 121.382 34.1764 120.707 34.1764ZM129.813 41.1487C130.542 41.1487 131.116 41.3492 131.536 41.7502C131.973 42.1512 132.192 42.689 132.192 43.3634C132.192 44.0561 131.973 44.6029 131.536 45.0039C131.116 45.3867 130.542 45.5781 129.813 45.5781C129.084 45.5781 128.501 45.3867 128.063 45.0039C127.644 44.6029 127.434 44.0561 127.434 43.3634C127.434 42.689 127.644 42.1512 128.063 41.7502C128.501 41.3492 129.084 41.1487 129.813 41.1487ZM140.948 36.6099C140.948 35.8261 140.72 35.2154 140.265 34.778C139.827 34.3405 139.244 34.1218 138.515 34.1218C137.84 34.1218 137.248 34.2949 136.738 34.6413C136.227 34.9876 135.854 35.5618 135.617 36.3638L132.418 35.3795C132.727 34.1764 133.402 33.2103 134.441 32.4812C135.498 31.7521 136.911 31.3875 138.679 31.3875C139.882 31.3875 140.93 31.5789 141.823 31.9617C142.716 32.3263 143.409 32.8822 143.901 33.6296C144.412 34.3769 144.667 35.3157 144.667 36.4458V41.9963C144.667 42.689 144.995 43.0353 145.651 43.0353C145.961 43.0353 146.253 42.9897 146.526 42.8986L146.307 45.2227C145.833 45.4596 145.241 45.5781 144.53 45.5781C143.892 45.5781 143.318 45.4687 142.808 45.25C142.297 45.0313 141.896 44.7032 141.604 44.2657C141.313 43.81 141.167 43.2449 141.167 42.5705V42.4611L141.823 42.3517C141.714 43.0444 141.413 43.6368 140.921 44.129C140.429 44.6029 139.827 44.9675 139.116 45.2227C138.424 45.4779 137.704 45.6055 136.956 45.6055C136.027 45.6055 135.225 45.4687 134.55 45.1953C133.876 44.9037 133.356 44.4844 132.992 43.9376C132.627 43.3907 132.445 42.7163 132.445 41.9143C132.445 40.8935 132.773 40.0641 133.429 39.4261C134.085 38.7699 135.024 38.3233 136.245 38.0864L141.386 37.0474L141.358 39.3714L138.077 40.0277C137.458 40.1553 136.984 40.3284 136.656 40.5472C136.346 40.7477 136.191 41.0849 136.191 41.5588C136.191 42.0145 136.355 42.3609 136.683 42.5978C137.029 42.8348 137.439 42.9533 137.913 42.9533C138.296 42.9533 138.67 42.9077 139.034 42.8166C139.399 42.7254 139.727 42.5796 140.019 42.3791C140.31 42.1786 140.538 41.9051 140.702 41.5588C140.866 41.2125 140.948 40.7932 140.948 40.3011V36.6099ZM148.282 29.6923C147.498 29.6923 146.915 29.5283 146.532 29.2002C146.149 28.8538 145.958 28.3526 145.958 27.6963C145.958 27.0219 146.149 26.5206 146.532 26.1925C146.915 25.8462 147.498 25.673 148.282 25.673C149.066 25.673 149.649 25.8462 150.032 26.1925C150.415 26.5206 150.606 27.0219 150.606 27.6963C150.606 28.3526 150.415 28.8538 150.032 29.2002C149.649 29.5283 149.066 29.6923 148.282 29.6923ZM150.141 31.661V45.332H146.395V31.661H150.141Z" fill="black"/>
<defs>
<linearGradient id="paint0_linear_1175_30259" x1="-3.77682" y1="48.2624" x2="49.5335" y2="48.2624" gradientUnits="userSpaceOnUse">
<stop stop-color="#8371FF"/>
<stop offset="0.394435" stop-color="#A077FE"/>
<stop offset="1" stop-color="#01C7E4"/>
</linearGradient>
<clipPath id="clip0_1175_30259">
<rect x="11.3125" y="14.1113" width="38.221" height="38.221" rx="19.1105" fill="white"/>
</clipPath>
</defs>
</svg>
