<svg width="51" height="51" viewBox="0 0 51 51" fill="none" xmlns="http://www.w3.org/2000/svg">
<rect width="50.625" height="50.625" rx="25.3125" fill="#0A0A0A"/>
<path fill-rule="evenodd" clip-rule="evenodd" d="M29.7837 20.1392V19.3776C29.7837 17.7452 31.1088 16.4191 32.7442 16.4191C34.3775 16.4191 35.7007 17.7434 35.7007 19.3736V20.1392C35.7007 21.7731 34.3762 23.0977 32.7422 23.0977C31.1083 23.0977 29.7837 21.7731 29.7837 20.1392ZM25.6147 20.1392V19.3776C25.6147 18.3228 25.8439 17.3215 26.2553 16.4208H18.315C16.4712 16.4208 14.9765 17.9155 14.9765 19.7593V20.2076C14.9765 21.8039 16.2705 23.0979 17.8667 23.0979C19.4629 23.0979 20.7569 21.8039 20.7569 20.2076V19.3082C20.7569 18.157 21.6902 17.2237 22.8415 17.2237C23.9927 17.2237 24.926 18.157 24.926 19.3082V20.2076C24.926 23.1393 23.1389 25.6536 20.5946 26.7205C23.1191 27.2573 25.013 29.4995 25.013 32.184C25.013 35.6021 22.242 38.373 18.8239 38.373H16.6451C13.3937 38.373 10.7578 35.7372 10.7578 32.4857C10.7578 29.7157 12.6709 27.3925 15.2478 26.7652C12.6457 25.7251 10.8074 23.181 10.8074 20.2076V19.7593C10.8074 15.613 14.1687 12.2517 18.315 12.2517H32.3576C32.3971 12.2517 32.4363 12.2528 32.4753 12.255C32.5645 12.2517 32.6542 12.25 32.7442 12.25C36.6785 12.25 39.8698 15.4393 39.8698 19.3736V20.1392C39.8698 24.0756 36.6787 27.2667 32.7422 27.2667C28.8058 27.2667 25.6147 24.0756 25.6147 20.1392ZM19.4274 30.7675H16.6451C15.6962 30.7675 14.9269 31.5368 14.9269 32.4857C14.9269 33.4347 15.6962 34.204 16.6451 34.204H18.8239C19.9395 34.204 20.8439 33.2996 20.8439 32.184C20.8439 31.4017 20.2097 30.7675 19.4274 30.7675Z" fill="white"/>
<path d="M29.1731 28.7293C29.5111 28.7293 29.8114 28.7761 30.0739 28.8696C30.3364 28.9595 30.5665 29.0979 30.7643 29.2849L30.2842 29.9915C30.1224 29.8549 29.9498 29.7488 29.7664 29.6733C29.5866 29.5942 29.387 29.5546 29.1677 29.5546C29.0562 29.5546 28.9663 29.5654 28.898 29.587C28.8296 29.6086 28.7793 29.6391 28.7469 29.6787C28.7182 29.7146 28.7038 29.756 28.7038 29.8027C28.7038 29.8603 28.7379 29.907 28.8063 29.943C28.8782 29.979 28.9771 30.0113 29.1029 30.0401L29.6423 30.1641C30.0019 30.2469 30.2698 30.3691 30.446 30.5309C30.6223 30.6892 30.7104 30.9067 30.7104 31.1836C30.7104 31.4533 30.642 31.6781 30.5054 31.8579C30.3723 32.0377 30.1889 32.1725 29.9552 32.2624C29.7215 32.3523 29.4571 32.3973 29.1623 32.3973C28.9285 32.3973 28.7002 32.3739 28.4772 32.3271C28.2579 32.2804 28.0565 32.2139 27.8731 32.1276C27.6897 32.0377 27.5315 31.9316 27.3984 31.8093L27.8731 31.0811C27.9702 31.1746 28.0889 31.2591 28.2291 31.3346C28.3694 31.4066 28.5186 31.4641 28.6768 31.5072C28.835 31.5504 28.9879 31.572 29.1353 31.572C29.2396 31.572 29.3241 31.563 29.3888 31.545C29.4571 31.5234 29.5057 31.4947 29.5345 31.4587C29.5632 31.4227 29.5776 31.3796 29.5776 31.3292C29.5776 31.2681 29.5542 31.2196 29.5075 31.1836C29.4607 31.1441 29.3726 31.1099 29.2432 31.0811L28.6498 30.9463C28.4557 30.9031 28.2759 30.8438 28.1104 30.7683C27.945 30.6928 27.812 30.5885 27.7113 30.4554C27.6142 30.3188 27.5657 30.1408 27.5657 29.9214C27.5657 29.6877 27.6286 29.4809 27.7544 29.3011C27.8803 29.1213 28.0637 28.9811 28.3046 28.8804C28.5456 28.7797 28.835 28.7293 29.1731 28.7293ZM32.4875 28.7563V31.3077C32.4875 31.4335 32.5144 31.5234 32.5684 31.5774C32.6259 31.6313 32.7104 31.6583 32.8219 31.6583C32.901 31.6583 32.9693 31.6511 33.0269 31.6367C33.0844 31.6223 33.1383 31.5989 33.1887 31.5666L33.2588 32.2031C33.1725 32.2642 33.0556 32.311 32.9082 32.3433C32.7608 32.3793 32.6169 32.3973 32.4767 32.3973C32.2465 32.3973 32.0506 32.3667 31.8887 32.3056C31.7305 32.2444 31.6082 32.1473 31.5219 32.0143C31.4392 31.8812 31.3979 31.7032 31.3979 31.4803V29.0584L32.4875 28.7563ZM33.221 29.6463V30.3961H30.9556V29.6463H33.221ZM34.5122 32.3973C34.3288 32.3973 34.1687 32.3667 34.0321 32.3056C33.899 32.2408 33.7948 32.1401 33.7192 32.0035C33.6473 31.8633 33.6114 31.6817 33.6114 31.4587V29.6463H34.7009V31.2052C34.7009 31.3418 34.7261 31.4389 34.7765 31.4965C34.8268 31.554 34.9005 31.5828 34.9976 31.5828C35.048 31.5828 35.0947 31.5738 35.1379 31.5558C35.181 31.5342 35.217 31.5037 35.2457 31.4641C35.2781 31.4245 35.3015 31.3724 35.3159 31.3077C35.3338 31.2429 35.3428 31.1674 35.3428 31.0811V29.6463H36.4324V32.3433H35.4561L35.4291 31.8039C35.3464 32.0017 35.2278 32.1509 35.0731 32.2516C34.9185 32.3487 34.7315 32.3973 34.5122 32.3973ZM37.9866 32.3973C37.7673 32.3973 37.5767 32.3433 37.4149 32.2354C37.2567 32.124 37.1344 31.9639 37.0481 31.7554C36.9654 31.5468 36.924 31.2969 36.924 31.0056C36.924 30.7071 36.9672 30.4536 37.0535 30.2451C37.1398 30.0329 37.2639 29.8711 37.4257 29.7596C37.5911 29.6481 37.7835 29.5924 38.0028 29.5924C38.2581 29.5924 38.4577 29.6733 38.6016 29.8351C38.7454 29.9933 38.8371 30.1965 38.8767 30.4446L38.7796 30.5795V28.5352H39.8692V32.3433H38.8874L38.8227 31.3346L38.9468 31.4587C38.9252 31.6421 38.8713 31.8057 38.785 31.9496C38.7023 32.0898 38.5926 32.1995 38.4559 32.2786C38.3229 32.3577 38.1664 32.3973 37.9866 32.3973ZM38.4074 31.6205C38.4865 31.6205 38.553 31.5971 38.607 31.5504C38.6609 31.5037 38.7023 31.4335 38.731 31.34C38.7634 31.2465 38.7796 31.1297 38.7796 30.9894C38.7796 30.8564 38.7652 30.7449 38.7364 30.655C38.7112 30.5615 38.6699 30.4914 38.6124 30.4446C38.5584 30.3979 38.4901 30.3745 38.4074 30.3745C38.2887 30.3745 38.1934 30.4213 38.1215 30.5148C38.0532 30.6047 38.019 30.7647 38.019 30.9948C38.019 31.225 38.0532 31.3868 38.1215 31.4803C38.1898 31.5738 38.2851 31.6205 38.4074 31.6205ZM28.1698 36.3185C28.364 36.3185 28.5132 36.3652 28.6175 36.4587C28.7218 36.5522 28.7739 36.6835 28.7739 36.8525C28.7739 37.0215 28.7218 37.1527 28.6175 37.2462C28.5132 37.3397 28.364 37.3865 28.1698 37.3865C27.9828 37.3865 27.8354 37.3397 27.7275 37.2462C27.6196 37.1527 27.5657 37.0215 27.5657 36.8525C27.5657 36.6835 27.6196 36.5522 27.7275 36.4587C27.8354 36.3652 27.9828 36.3185 28.1698 36.3185ZM29.841 34.409C29.6252 34.409 29.4688 34.3712 29.3717 34.2957C29.2782 34.2202 29.2315 34.0979 29.2315 33.9289C29.2315 33.7563 29.2782 33.6322 29.3717 33.5567C29.4688 33.4812 29.6252 33.4435 29.841 33.4435C30.0568 33.4435 30.2114 33.4812 30.3049 33.5567C30.402 33.6322 30.4505 33.7563 30.4505 33.9289C30.4505 34.0979 30.402 34.2202 30.3049 34.2957C30.2114 34.3712 30.0568 34.409 29.841 34.409ZM30.3858 34.6463V37.3433H29.2962V34.6463H30.3858ZM32.3158 34.5924C32.6107 34.5924 32.8678 34.6481 33.0871 34.7596C33.3065 34.8675 33.4773 35.0257 33.5996 35.2343C33.7218 35.4428 33.783 35.6964 33.783 35.9948C33.783 36.2897 33.7218 36.5432 33.5996 36.7554C33.4773 36.9639 33.3065 37.124 33.0871 37.2354C32.8678 37.3433 32.6107 37.3973 32.3158 37.3973C32.0281 37.3973 31.7728 37.3433 31.5498 37.2354C31.3305 37.124 31.1579 36.9639 31.032 36.7554C30.9097 36.5432 30.8486 36.2897 30.8486 35.9948C30.8486 35.6964 30.9097 35.4428 31.032 35.2343C31.1579 35.0257 31.3305 34.8675 31.5498 34.7596C31.7728 34.6481 32.0281 34.5924 32.3158 34.5924ZM32.3158 35.3421C32.2367 35.3421 32.1683 35.3619 32.1108 35.4015C32.0569 35.441 32.0155 35.5094 31.9868 35.6065C31.958 35.7035 31.9436 35.833 31.9436 35.9948C31.9436 36.1566 31.958 36.2861 31.9868 36.3832C32.0155 36.4767 32.0569 36.545 32.1108 36.5882C32.1683 36.6277 32.2367 36.6475 32.3158 36.6475C32.3985 36.6475 32.4668 36.6277 32.5208 36.5882C32.5747 36.545 32.6161 36.4767 32.6448 36.3832C32.6736 36.2861 32.688 36.1566 32.688 35.9948C32.688 35.833 32.6736 35.7035 32.6448 35.6065C32.6161 35.5094 32.5747 35.441 32.5208 35.4015C32.4668 35.3619 32.3985 35.3421 32.3158 35.3421Z" fill="white"/>
</svg>
