<svg width="96" height="34" viewBox="0 0 96 34" fill="none" xmlns="http://www.w3.org/2000/svg">
<rect x="0.851562" y="0.435547" width="33.1273" height="33.1273" rx="16.5636" fill="url(#paint0_linear_1653_35191)"/>
<path fill-rule="evenodd" clip-rule="evenodd" d="M21.1414 14.5019V13.9364C21.1414 12.7244 22.1252 11.7399 23.3395 11.7399C24.5521 11.7399 25.5345 12.7231 25.5345 13.9334V14.5019C25.5345 15.715 24.5511 16.6984 23.338 16.6984C22.1249 16.6984 21.1414 15.715 21.1414 14.5019ZM18.0461 14.5019V13.9364C18.0461 13.1533 18.2163 12.4099 18.5218 11.7411H12.6265C11.2575 11.7411 10.1478 12.8509 10.1478 14.2198V14.5527C10.1478 15.7378 11.1085 16.6985 12.2936 16.6985C13.4787 16.6985 14.4395 15.7378 14.4395 14.5527V13.8849C14.4395 13.0302 15.1324 12.3372 15.9871 12.3372C16.8419 12.3372 17.5348 13.0302 17.5348 13.8849V14.5527C17.5348 16.7293 16.208 18.5961 14.319 19.3882C16.1933 19.7867 17.5994 21.4514 17.5994 23.4446C17.5994 25.9823 15.5421 28.0396 13.0043 28.0396H11.3867C8.97261 28.0396 7.01562 26.0826 7.01562 23.6686C7.01562 21.612 8.43598 19.8871 10.3493 19.4214C8.41732 18.6491 7.05245 16.7603 7.05245 14.5527V14.2198C7.05245 11.1414 9.54802 8.6458 12.6265 8.6458H23.0524C23.0817 8.6458 23.1108 8.64662 23.1398 8.64823C23.206 8.64577 23.2726 8.64453 23.3395 8.64453C26.2604 8.64453 28.6299 11.0125 28.6299 13.9334V14.5019C28.6299 17.4245 26.2606 19.7937 23.338 19.7937C20.4154 19.7937 18.0461 17.4245 18.0461 14.5019ZM13.4523 22.3928H11.3867C10.6821 22.3928 10.111 22.964 10.111 23.6686C10.111 24.3731 10.6821 24.9443 11.3867 24.9443H13.0043C13.8326 24.9443 14.504 24.2728 14.504 23.4446C14.504 22.8637 14.0332 22.3928 13.4523 22.3928Z" fill="white"/>
<path d="M44.4699 10.5477C45.6298 10.5477 46.648 10.7475 47.5243 11.147C48.4007 11.5465 49.1482 12.1394 49.7668 12.9255L48.2783 14.6461C47.7499 13.9759 47.1699 13.4862 46.5384 13.1769C45.9198 12.8547 45.1981 12.6936 44.3733 12.6936C43.832 12.6936 43.3809 12.7644 43.02 12.9062C42.6721 13.048 42.4143 13.2348 42.2468 13.4668C42.0921 13.6988 42.0148 13.9566 42.0148 14.2401C42.0148 14.5881 42.1501 14.8845 42.4208 15.1294C42.6914 15.3613 43.1554 15.5547 43.8126 15.7093L46.1904 16.2506C47.4534 16.5341 48.3556 16.9594 48.8969 17.5265C49.4511 18.0807 49.7281 18.8024 49.7281 19.6916C49.7281 20.5294 49.5091 21.2511 49.0709 21.8568C48.6327 22.4496 48.0205 22.9072 47.2344 23.2294C46.4482 23.5387 45.546 23.6933 44.5279 23.6933C43.6387 23.6933 42.8203 23.5902 42.0728 23.384C41.3382 23.1649 40.6809 22.8685 40.1009 22.4947C39.521 22.121 39.0377 21.6893 38.6511 21.1995L40.1589 19.4017C40.4554 19.8141 40.8227 20.1814 41.2608 20.5036C41.699 20.8258 42.1952 21.0835 42.7494 21.2769C43.3165 21.4573 43.9093 21.5475 44.5279 21.5475C45.0563 21.5475 45.5009 21.4895 45.8618 21.3735C46.2355 21.2446 46.5126 21.0706 46.6931 20.8516C46.8864 20.6196 46.983 20.3425 46.983 20.0203C46.983 19.6852 46.8671 19.4017 46.6351 19.1697C46.416 18.9248 46.0036 18.7379 45.3978 18.6091L42.8074 18.0291C42.0599 17.8487 41.4155 17.6167 40.8742 17.3332C40.3458 17.0368 39.9398 16.663 39.6563 16.2119C39.3857 15.748 39.2503 15.2002 39.2503 14.5687C39.2503 13.8084 39.4566 13.1253 39.869 12.5196C40.2814 11.9138 40.8742 11.437 41.6475 11.089C42.4336 10.7282 43.3745 10.5477 44.4699 10.5477ZM53.6632 10.8764V20.3489C53.6632 20.8129 53.7792 21.1544 54.0112 21.3735C54.2561 21.5797 54.5847 21.6828 54.9971 21.6828C55.3193 21.6828 55.6028 21.6377 55.8477 21.5475C56.0926 21.4444 56.3117 21.3091 56.505 21.1415L56.9303 22.9007C56.621 23.1456 56.2343 23.3389 55.7704 23.4807C55.3064 23.6224 54.8167 23.6933 54.3012 23.6933C53.6568 23.6933 53.0833 23.5967 52.5806 23.4033C52.0909 23.21 51.7043 22.9007 51.4207 22.4754C51.1501 22.0501 51.0148 21.4831 51.0148 20.7742V11.611L53.6632 10.8764ZM56.7563 13.8341V15.806H49.2362V13.8341H56.7563ZM60.172 23.6933C59.5276 23.6933 58.9476 23.5773 58.4321 23.3453C57.9166 23.1134 57.5042 22.7461 57.1949 22.2434C56.8985 21.7279 56.7503 21.0642 56.7503 20.2523V13.8341H59.3987V19.6143C59.3987 20.3618 59.5534 20.8838 59.8627 21.1802C60.172 21.4637 60.6166 21.6055 61.1966 21.6055C61.4672 21.6055 61.7314 21.5604 61.9892 21.4702C62.2469 21.3671 62.4724 21.2124 62.6658 21.0062C62.872 20.8 63.0331 20.5358 63.1491 20.2136C63.265 19.8785 63.323 19.4854 63.323 19.0344V13.8341H65.9715V23.5H63.613L63.5164 21.8181C63.1942 22.4625 62.7495 22.9394 62.1825 23.2487C61.6283 23.5451 60.9581 23.6933 60.172 23.6933ZM70.6723 23.6933C69.8732 23.6933 69.158 23.4936 68.5265 23.094C67.9078 22.6945 67.4181 22.121 67.0572 21.3735C66.7093 20.626 66.5353 19.7303 66.5353 18.6864C66.5353 17.6167 66.7222 16.7081 67.0959 15.9606C67.4697 15.2002 67.9723 14.6267 68.6038 14.2401C69.2482 13.8406 69.9699 13.6408 70.7689 13.6408C71.6195 13.6408 72.3219 13.8857 72.8761 14.3754C73.4303 14.8652 73.7911 15.4967 73.9587 16.2699L73.7074 16.5792V9.60048H76.3558V23.5H73.978L73.804 20.5616L74.1327 20.7162C74.0424 21.322 73.8362 21.8504 73.514 22.3014C73.1918 22.7396 72.7859 23.0811 72.2961 23.326C71.8064 23.5709 71.2651 23.6933 70.6723 23.6933ZM71.4455 21.6635C71.9095 21.6635 72.309 21.5475 72.6441 21.3155C72.9792 21.0706 73.237 20.7162 73.4174 20.2523C73.6107 19.7883 73.7074 19.2341 73.7074 18.5897C73.7074 17.9711 73.6171 17.4492 73.4367 17.0239C73.2563 16.5857 72.9985 16.2506 72.6634 16.0186C72.3284 15.7866 71.9353 15.6706 71.4842 15.6706C70.7625 15.6706 70.1954 15.9284 69.783 16.4439C69.3835 16.9465 69.1837 17.6876 69.1837 18.6671C69.1837 19.6465 69.3835 20.394 69.783 20.9095C70.1825 21.4122 70.7367 21.6635 71.4455 21.6635ZM78.7327 20.5422C79.2482 20.5422 79.6542 20.684 79.9506 20.9675C80.2599 21.2511 80.4146 21.6313 80.4146 22.1081C80.4146 22.5979 80.2599 22.9845 79.9506 23.268C79.6542 23.5387 79.2482 23.674 78.7327 23.674C78.2172 23.674 77.8048 23.5387 77.4955 23.268C77.1991 22.9845 77.0508 22.5979 77.0508 22.1081C77.0508 21.6313 77.1991 21.2511 77.4955 20.9675C77.8048 20.684 78.2172 20.5422 78.7327 20.5422ZM82.4299 12.4422C81.8757 12.4422 81.4633 12.3263 81.1927 12.0943C80.922 11.8494 80.7867 11.495 80.7867 11.031C80.7867 10.5542 80.922 10.1998 81.1927 9.96778C81.4633 9.72291 81.8757 9.60048 82.4299 9.60048C82.9841 9.60048 83.3965 9.72291 83.6671 9.96778C83.9378 10.1998 84.0731 10.5542 84.0731 11.031C84.0731 11.495 83.9378 11.8494 83.6671 12.0943C83.3965 12.3263 82.9841 12.4422 82.4299 12.4422ZM83.7445 13.8341V23.5H81.096V13.8341H83.7445ZM89.2197 13.6408C90.1992 13.6408 91.0562 13.8406 91.7908 14.2401C92.5383 14.6396 93.1183 15.2131 93.5307 15.9606C93.956 16.7081 94.1686 17.6103 94.1686 18.6671C94.1686 19.711 93.956 20.6131 93.5307 21.3735C93.1183 22.121 92.5383 22.6945 91.7908 23.094C91.0562 23.4936 90.1992 23.6933 89.2197 23.6933C88.2531 23.6933 87.3961 23.4936 86.6486 23.094C85.9011 22.6945 85.3147 22.121 84.8894 21.3735C84.477 20.6131 84.2708 19.711 84.2708 18.6671C84.2708 17.6103 84.477 16.7081 84.8894 15.9606C85.3147 15.2131 85.9011 14.6396 86.6486 14.2401C87.3961 13.8406 88.2531 13.6408 89.2197 13.6408ZM89.2197 15.6127C88.73 15.6127 88.3111 15.7286 87.9632 15.9606C87.6281 16.1797 87.3703 16.5148 87.1899 16.9659C87.0095 17.4169 86.9192 17.984 86.9192 18.6671C86.9192 19.3501 87.0095 19.9172 87.1899 20.3683C87.3703 20.8193 87.6281 21.1609 87.9632 21.3928C88.3111 21.6119 88.73 21.7215 89.2197 21.7215C89.6966 21.7215 90.1025 21.6119 90.4376 21.3928C90.7856 21.1609 91.0498 20.8193 91.2302 20.3683C91.4106 19.9172 91.5009 19.3501 91.5009 18.6671C91.5009 17.984 91.4106 17.4169 91.2302 16.9659C91.0498 16.5148 90.7856 16.1797 90.4376 15.9606C90.1025 15.7286 89.6966 15.6127 89.2197 15.6127Z" fill="#1F1F1F"/>
<defs>
<linearGradient id="paint0_linear_1653_35191" x1="-12.2268" y1="30.0353" x2="33.9789" y2="30.0353" gradientUnits="userSpaceOnUse">
<stop stop-color="#8371FF"/>
<stop offset="0.513" stop-color="#A077FE"/>
<stop offset="1" stop-color="#01C7E4"/>
</linearGradient>
</defs>
</svg>
