<svg width="90" height="25" viewBox="0 0 90 25" fill="none" xmlns="http://www.w3.org/2000/svg">
<g filter="url(#filter0_b_1246_24276)">
<rect x="0.5" y="0.5" width="89" height="24" rx="12" fill="#E4E4E7" fill-opacity="0.8"/>
<rect x="5" y="5" width="15" height="15" rx="7.5" fill="url(#paint0_linear_1246_24276)"/>
<path d="M8 10.625C9.0357 10.625 9.875 9.7857 9.875 8.75C9.875 9.7857 10.7143 10.625 11.75 10.625C10.7143 10.625 9.875 11.4643 9.875 12.5C9.875 11.4643 9.0357 10.625 8 10.625Z" fill="white"/>
<path d="M9.5 14C11.5706 14 13.25 12.3206 13.25 10.25C13.25 12.3206 14.9294 14 17 14C14.9294 14 13.25 15.6794 13.25 17.75C13.25 15.6794 11.5706 14 9.5 14Z" fill="white"/>
<path d="M28.901 14.105H26.165L25.661 15.5H24.797L27.065 9.263H28.01L30.269 15.5H29.405L28.901 14.105ZM28.667 13.439L27.533 10.271L26.399 13.439H28.667ZM32.0765 9.227V15.5H31.2575V9.227H32.0765ZM40.6237 11.045C40.4497 10.679 40.1977 10.397 39.8677 10.199C39.5377 9.995 39.1537 9.893 38.7157 9.893C38.2777 9.893 37.8817 9.995 37.5277 10.199C37.1797 10.397 36.9037 10.685 36.6997 11.063C36.5017 11.435 36.4027 11.867 36.4027 12.359C36.4027 12.851 36.5017 13.283 36.6997 13.655C36.9037 14.027 37.1797 14.315 37.5277 14.519C37.8817 14.717 38.2777 14.816 38.7157 14.816C39.3277 14.816 39.8317 14.633 40.2277 14.267C40.6237 13.901 40.8547 13.406 40.9207 12.782H38.4187V12.116H41.7937V12.746C41.7457 13.262 41.5837 13.736 41.3077 14.168C41.0317 14.594 40.6687 14.933 40.2187 15.185C39.7687 15.431 39.2677 15.554 38.7157 15.554C38.1337 15.554 37.6027 15.419 37.1227 15.149C36.6427 14.873 36.2617 14.492 35.9797 14.006C35.7037 13.52 35.5657 12.971 35.5657 12.359C35.5657 11.747 35.7037 11.198 35.9797 10.712C36.2617 10.22 36.6427 9.839 37.1227 9.569C37.6027 9.293 38.1337 9.155 38.7157 9.155C39.3817 9.155 39.9697 9.32 40.4797 9.65C40.9957 9.98 41.3707 10.445 41.6047 11.045H40.6237ZM47.3766 12.845C47.3766 13.001 47.3676 13.166 47.3496 13.34H43.4076C43.4376 13.826 43.6026 14.207 43.9026 14.483C44.2086 14.753 44.5776 14.888 45.0096 14.888C45.3636 14.888 45.6576 14.807 45.8916 14.645C46.1316 14.477 46.2996 14.255 46.3956 13.979H47.2776C47.1456 14.453 46.8816 14.84 46.4856 15.14C46.0896 15.434 45.5976 15.581 45.0096 15.581C44.5416 15.581 44.1216 15.476 43.7496 15.266C43.3836 15.056 43.0956 14.759 42.8856 14.375C42.6756 13.985 42.5706 13.535 42.5706 13.025C42.5706 12.515 42.6726 12.068 42.8766 11.684C43.0806 11.3 43.3656 11.006 43.7316 10.802C44.1036 10.592 44.5296 10.487 45.0096 10.487C45.4776 10.487 45.8916 10.589 46.2516 10.793C46.6116 10.997 46.8876 11.279 47.0796 11.639C47.2776 11.993 47.3766 12.395 47.3766 12.845ZM46.5306 12.674C46.5306 12.362 46.4616 12.095 46.3236 11.873C46.1856 11.645 45.9966 11.474 45.7566 11.36C45.5226 11.24 45.2616 11.18 44.9736 11.18C44.5596 11.18 44.2056 11.312 43.9116 11.576C43.6236 11.84 43.4586 12.206 43.4166 12.674H46.5306ZM50.8606 10.478C51.4606 10.478 51.9466 10.661 52.3186 11.027C52.6906 11.387 52.8766 11.909 52.8766 12.593V15.5H52.0666V12.71C52.0666 12.218 51.9436 11.843 51.6976 11.585C51.4516 11.321 51.1156 11.189 50.6896 11.189C50.2576 11.189 49.9126 11.324 49.6546 11.594C49.4026 11.864 49.2766 12.257 49.2766 12.773V15.5H48.4576V10.568H49.2766V11.27C49.4386 11.018 49.6576 10.823 49.9336 10.685C50.2156 10.547 50.5246 10.478 50.8606 10.478ZM58.7145 12.845C58.7145 13.001 58.7055 13.166 58.6875 13.34H54.7455C54.7755 13.826 54.9405 14.207 55.2405 14.483C55.5465 14.753 55.9155 14.888 56.3475 14.888C56.7015 14.888 56.9955 14.807 57.2295 14.645C57.4695 14.477 57.6375 14.255 57.7335 13.979H58.6155C58.4835 14.453 58.2195 14.84 57.8235 15.14C57.4275 15.434 56.9355 15.581 56.3475 15.581C55.8795 15.581 55.4595 15.476 55.0875 15.266C54.7215 15.056 54.4335 14.759 54.2235 14.375C54.0135 13.985 53.9085 13.535 53.9085 13.025C53.9085 12.515 54.0105 12.068 54.2145 11.684C54.4185 11.3 54.7035 11.006 55.0695 10.802C55.4415 10.592 55.8675 10.487 56.3475 10.487C56.8155 10.487 57.2295 10.589 57.5895 10.793C57.9495 10.997 58.2255 11.279 58.4175 11.639C58.6155 11.993 58.7145 12.395 58.7145 12.845ZM57.8685 12.674C57.8685 12.362 57.7995 12.095 57.6615 11.873C57.5235 11.645 57.3345 11.474 57.0945 11.36C56.8605 11.24 56.5995 11.18 56.3115 11.18C55.8975 11.18 55.5435 11.312 55.2495 11.576C54.9615 11.84 54.7965 12.206 54.7545 12.674H57.8685ZM60.6145 11.369C60.7585 11.087 60.9625 10.868 61.2265 10.712C61.4965 10.556 61.8235 10.478 62.2075 10.478V11.324H61.9915C61.0735 11.324 60.6145 11.822 60.6145 12.818V15.5H59.7955V10.568H60.6145V11.369ZM62.847 13.016C62.847 12.512 62.949 12.071 63.153 11.693C63.357 11.309 63.636 11.012 63.99 10.802C64.35 10.592 64.749 10.487 65.187 10.487C65.619 10.487 65.994 10.58 66.312 10.766C66.63 10.952 66.867 11.186 67.023 11.468V10.568H67.851V15.5H67.023V14.582C66.861 14.87 66.618 15.11 66.294 15.302C65.976 15.488 65.604 15.581 65.178 15.581C64.74 15.581 64.344 15.473 63.99 15.257C63.636 15.041 63.357 14.738 63.153 14.348C62.949 13.958 62.847 13.514 62.847 13.016ZM67.023 13.025C67.023 12.653 66.948 12.329 66.798 12.053C66.648 11.777 66.444 11.567 66.186 11.423C65.934 11.273 65.655 11.198 65.349 11.198C65.043 11.198 64.764 11.27 64.512 11.414C64.26 11.558 64.059 11.768 63.909 12.044C63.759 12.32 63.684 12.644 63.684 13.016C63.684 13.394 63.759 13.724 63.909 14.006C64.059 14.282 64.26 14.495 64.512 14.645C64.764 14.789 65.043 14.861 65.349 14.861C65.655 14.861 65.934 14.789 66.186 14.645C66.444 14.495 66.648 14.282 66.798 14.006C66.948 13.724 67.023 13.397 67.023 13.025ZM70.234 11.243V14.15C70.234 14.39 70.285 14.561 70.387 14.663C70.489 14.759 70.666 14.807 70.918 14.807H71.521V15.5H70.783C70.327 15.5 69.985 15.395 69.757 15.185C69.529 14.975 69.415 14.63 69.415 14.15V11.243H68.776V10.568H69.415V9.326H70.234V10.568H71.521V11.243H70.234ZM77.0133 12.845C77.0133 13.001 77.0043 13.166 76.9863 13.34H73.0443C73.0743 13.826 73.2393 14.207 73.5393 14.483C73.8453 14.753 74.2143 14.888 74.6463 14.888C75.0003 14.888 75.2943 14.807 75.5283 14.645C75.7683 14.477 75.9363 14.255 76.0323 13.979H76.9143C76.7823 14.453 76.5183 14.84 76.1223 15.14C75.7263 15.434 75.2343 15.581 74.6463 15.581C74.1783 15.581 73.7583 15.476 73.3863 15.266C73.0203 15.056 72.7323 14.759 72.5223 14.375C72.3123 13.985 72.2073 13.535 72.2073 13.025C72.2073 12.515 72.3093 12.068 72.5133 11.684C72.7173 11.3 73.0023 11.006 73.3683 10.802C73.7403 10.592 74.1663 10.487 74.6463 10.487C75.1143 10.487 75.5283 10.589 75.8883 10.793C76.2483 10.997 76.5243 11.279 76.7163 11.639C76.9143 11.993 77.0133 12.395 77.0133 12.845ZM76.1673 12.674C76.1673 12.362 76.0983 12.095 75.9603 11.873C75.8223 11.645 75.6333 11.474 75.3933 11.36C75.1593 11.24 74.8983 11.18 74.6103 11.18C74.1963 11.18 73.8423 11.312 73.5483 11.576C73.2603 11.84 73.0953 12.206 73.0533 12.674H76.1673ZM77.7884 13.016C77.7884 12.512 77.8904 12.071 78.0944 11.693C78.2984 11.309 78.5774 11.012 78.9314 10.802C79.2914 10.592 79.6934 10.487 80.1374 10.487C80.5214 10.487 80.8784 10.577 81.2084 10.757C81.5384 10.931 81.7904 11.162 81.9644 11.45V8.84H82.7924V15.5H81.9644V14.573C81.8024 14.867 81.5624 15.11 81.2444 15.302C80.9264 15.488 80.5544 15.581 80.1284 15.581C79.6904 15.581 79.2914 15.473 78.9314 15.257C78.5774 15.041 78.2984 14.738 78.0944 14.348C77.8904 13.958 77.7884 13.514 77.7884 13.016ZM81.9644 13.025C81.9644 12.653 81.8894 12.329 81.7394 12.053C81.5894 11.777 81.3854 11.567 81.1274 11.423C80.8754 11.273 80.5964 11.198 80.2904 11.198C79.9844 11.198 79.7054 11.27 79.4534 11.414C79.2014 11.558 79.0004 11.768 78.8504 12.044C78.7004 12.32 78.6254 12.644 78.6254 13.016C78.6254 13.394 78.7004 13.724 78.8504 14.006C79.0004 14.282 79.2014 14.495 79.4534 14.645C79.7054 14.789 79.9844 14.861 80.2904 14.861C80.5964 14.861 80.8754 14.789 81.1274 14.645C81.3854 14.495 81.5894 14.282 81.7394 14.006C81.8894 13.724 81.9644 13.397 81.9644 13.025Z" fill="#374151"/>
</g>
<defs>
<filter id="filter0_b_1246_24276" x="-5.5" y="-5.5" width="101" height="36" filterUnits="userSpaceOnUse" color-interpolation-filters="sRGB">
<feFlood flood-opacity="0" result="BackgroundImageFix"/>
<feGaussianBlur in="BackgroundImageFix" stdDeviation="3"/>
<feComposite in2="SourceAlpha" operator="in" result="effect1_backgroundBlur_1246_24276"/>
<feBlend mode="normal" in="SourceGraphic" in2="effect1_backgroundBlur_1246_24276" result="shape"/>
</filter>
<linearGradient id="paint0_linear_1246_24276" x1="-0.921865" y1="18.4028" x2="20" y2="18.4028" gradientUnits="userSpaceOnUse">
<stop stop-color="#8371FF"/>
<stop offset="0.394435" stop-color="#A077FE"/>
<stop offset="1" stop-color="#01C7E4"/>
</linearGradient>
</defs>
</svg>
