<svg width="25" height="24" viewBox="0 0 25 24" fill="none" xmlns="http://www.w3.org/2000/svg">
<rect x="0.5" width="24" height="24" rx="12" fill="url(#paint0_linear_908_7009)"/>
<path d="M12.5 20C10.3783 20 8.34344 19.1571 6.84315 17.6569C5.34285 16.1566 4.5 14.1217 4.5 12C4.5 9.87827 5.34285 7.84344 6.84315 6.34315C8.34344 4.84285 10.3783 4 12.5 4C14.6217 4 16.6566 4.84285 18.1569 6.34315C19.6571 7.84344 20.5 9.87827 20.5 12C20.5 14.1217 19.6571 16.1566 18.1569 17.6569C16.6566 19.1571 14.6217 20 12.5 20ZM12.5 18.4C14.1974 18.4 15.8253 17.7257 17.0255 16.5255C18.2257 15.3253 18.9 13.6974 18.9 12C18.9 10.3026 18.2257 8.67475 17.0255 7.47452C15.8253 6.27428 14.1974 5.6 12.5 5.6C10.8026 5.6 9.17475 6.27428 7.97452 7.47452C6.77428 8.67475 6.1 10.3026 6.1 12C6.1 13.6974 6.77428 15.3253 7.97452 16.5255C9.17475 17.7257 10.8026 18.4 12.5 18.4ZM11.7 12.328V7.2H13.3V11.672L16.46 14.832L15.332 15.96L11.7 12.328Z" fill="white"/>
<defs>
<linearGradient id="paint0_linear_908_7009" x1="-8.97498" y1="21.4444" x2="24.5" y2="21.4444" gradientUnits="userSpaceOnUse">
<stop stop-color="#8371FF"/>
<stop offset="0.394435" stop-color="#A077FE"/>
<stop offset="1" stop-color="#01C7E4"/>
</linearGradient>
</defs>
</svg>
