<svg width="25" height="24" viewBox="0 0 25 24" fill="none" xmlns="http://www.w3.org/2000/svg">
<g clip-path="url(#clip0_908_7004)">
<rect x="0.5" width="24" height="24" rx="12" fill="url(#paint0_linear_908_7004)"/>
<rect x="0.5" width="24" height="24" rx="12" fill="url(#paint1_linear_908_7004)"/>
<path d="M11.9906 9.03558C12.0751 9.05037 12.148 9.10315 12.1885 9.17874L12.9329 10.5691C13.0381 10.7654 13.3196 10.7655 13.4249 10.5693L14.1711 9.17854C14.2116 9.10307 14.2845 9.05038 14.3688 9.0356L16.1111 8.73045C16.419 8.67651 16.419 8.2345 16.111 8.18068L14.3689 7.87619C14.2845 7.86144 14.2116 7.80874 14.171 7.73324L13.4249 6.34256C13.3196 6.1463 13.0381 6.14642 12.9329 6.34277L12.1885 7.73309C12.148 7.80868 12.0751 7.86146 11.9906 7.87625L10.2497 8.18104C9.94182 8.23495 9.94182 8.67689 10.2497 8.73079L11.9906 9.03558Z" fill="white"/>
<path d="M9.10862 15.1104C9.1695 15.1291 9.21715 15.1767 9.23579 15.2376L9.90421 17.4223C9.95953 17.603 10.2154 17.6031 10.2708 17.4224L10.9407 15.2375C10.9594 15.1767 11.007 15.1291 11.0678 15.1104L13.2534 14.4405C13.4342 14.3851 13.4341 14.1292 13.2533 14.0739L11.0679 13.4054C11.007 13.3868 10.9594 13.3392 10.9407 13.2783L10.2708 11.0935C10.2154 10.9128 9.95952 10.9129 9.90421 11.0936L9.23579 13.2783C9.21715 13.3392 9.1695 13.3868 9.10862 13.4055L6.92462 14.0746C6.74388 14.13 6.74388 14.3859 6.92462 14.4413L9.10862 15.1104Z" fill="white"/>
<path d="M15.6949 13.4923C15.7817 13.5188 15.8496 13.5868 15.8761 13.6735L16.0909 14.3755C16.1697 14.6331 16.5344 14.6332 16.6133 14.3757L16.8286 13.6734C16.8552 13.5867 16.9231 13.5189 17.0098 13.4923L17.7123 13.277C17.9699 13.198 17.9698 12.8333 17.7121 12.7545L17.0099 12.5398C16.9231 12.5132 16.8552 12.4453 16.8286 12.3586L16.6133 11.6564C16.5344 11.3989 16.1697 11.399 16.0909 11.6566L15.8761 12.3586C15.8496 12.4453 15.7817 12.5132 15.6949 12.5398L14.9931 12.7549C14.7356 12.8338 14.7356 13.1983 14.9931 13.2772L15.6949 13.4923Z" fill="white"/>
</g>
<defs>
<linearGradient id="paint0_linear_908_7004" x1="-8.97498" y1="21.4444" x2="24.5" y2="21.4444" gradientUnits="userSpaceOnUse">
<stop stop-color="#8371FF"/>
<stop offset="0.394435" stop-color="#A077FE"/>
<stop offset="1" stop-color="#01C7E4"/>
</linearGradient>
<linearGradient id="paint1_linear_908_7004" x1="-8.97498" y1="21.4444" x2="24.5" y2="21.4444" gradientUnits="userSpaceOnUse">
<stop stop-color="#8371FF"/>
<stop offset="0.394435" stop-color="#A077FE"/>
<stop offset="1" stop-color="#01C7E4"/>
</linearGradient>
<clipPath id="clip0_908_7004">
<rect x="0.5" width="24" height="24" rx="12" fill="white"/>
</clipPath>
</defs>
</svg>
