<svg width="25" height="24" viewBox="0 0 25 24" fill="none" xmlns="http://www.w3.org/2000/svg">
<g clip-path="url(#clip0_908_7020)">
<rect x="0.5" width="24" height="24" rx="12" fill="url(#paint0_linear_908_7020)"/>
<rect x="0.5" width="24" height="24" rx="12" fill="url(#paint1_linear_908_7020)"/>
<path d="M12.5 4C8.1 4 4.5 7.6 4.5 12C4.5 16.4 8.1 20 12.5 20C16.9 20 20.5 16.4 20.5 12C20.5 7.6 16.9 4 12.5 4ZM12.5 18.4C8.972 18.4 6.1 15.528 6.1 12C6.1 8.472 8.972 5.6 12.5 5.6C16.028 5.6 18.9 8.472 18.9 12C18.9 15.528 16.028 18.4 12.5 18.4ZM16.172 8.464L10.9 13.736L8.828 11.672L7.7 12.8L10.9 16L17.3 9.6L16.172 8.464Z" fill="white"/>
</g>
<defs>
<linearGradient id="paint0_linear_908_7020" x1="-8.97498" y1="21.4444" x2="24.5" y2="21.4444" gradientUnits="userSpaceOnUse">
<stop stop-color="#8371FF"/>
<stop offset="0.394435" stop-color="#A077FE"/>
<stop offset="1" stop-color="#01C7E4"/>
</linearGradient>
<linearGradient id="paint1_linear_908_7020" x1="-8.97498" y1="21.4444" x2="24.5" y2="21.4444" gradientUnits="userSpaceOnUse">
<stop stop-color="#8371FF"/>
<stop offset="0.394435" stop-color="#A077FE"/>
<stop offset="1" stop-color="#01C7E4"/>
</linearGradient>
<clipPath id="clip0_908_7020">
<rect x="0.5" width="24" height="24" rx="12" fill="white"/>
</clipPath>
</defs>
</svg>
